<svg width="303" height="480" viewBox="0 0 303 480" fill="none" xmlns="http://www.w3.org/2000/svg">
<mask id="mask0_606_147" style="mask-type:alpha" maskUnits="userSpaceOnUse" x="0" y="0" width="303" height="222">
<rect width="303" height="222" rx="24" fill="#BFE3F8"/>
</mask>
<g mask="url(#mask0_606_147)">
<path d="M-78.046 -54.5363C-74.7999 -73.3743 -40.5772 -99.998 -9.79783 -64.4343C26.7046 -26.4005 69.8034 -63.4872 84.055 -19.8047C94.3854 11.8589 48.04 34.3965 49.7861 58.1435C50.307 107.954 -4.69229 124.86 -29.3158 96.4492C-47.7159 75.2194 -72.9394 108.257 -86.7757 88.6631C-102.176 66.8538 -77.3209 59.3607 -75.3718 33.8521C-72.5421 -3.1828 -81.807 -32.7099 -78.046 -54.5363Z" fill="#203049"/>
<path fill-rule="evenodd" clip-rule="evenodd" d="M212.269 207.277C194.81 177.857 243.439 171.103 272.708 149.443C288.658 137.641 296.121 124.513 309.67 125.168C337.37 126.508 337.159 188.449 331.032 199.444C307.928 240.903 219.496 219.455 212.269 207.277Z" fill="#779AAB"/>
</g>
<rect x="0.000244141" y="194" width="303" height="286" rx="24" fill="#F6EDE5"/>
</svg>
