<svg width="350" height="344" viewBox="0 0 350 344" fill="none" xmlns="http://www.w3.org/2000/svg">
<ellipse cx="175" cy="171.721" rx="175" ry="171.721" fill="#BFE3F8"/>
<path d="M84.8 232.8H77.8V235.592L79.7218 237.618L84.8 232.8ZM90.2 225L84.6 220.8L84.6 220.8L90.2 225ZM102.2 207.6L96.3757 203.717L96.3491 203.757L96.323 203.797L102.2 207.6ZM113.6 186.6L120.073 189.265L123.102 181.909L115.42 179.841L113.6 186.6ZM87.8 169.8L82.261 174.08L82.3094 174.143L82.3593 174.204L87.8 169.8ZM90.8 111L95.6333 116.063L95.6386 116.058L90.8 111ZM159.2 112.8L154.25 117.75L154.301 117.8L154.352 117.85L159.2 112.8ZM145.4 217.2L150.778 221.681L150.778 221.681L145.4 217.2ZM122.6 241.8L127.406 246.889L127.406 246.889L122.6 241.8ZM107 256.2L101.922 261.018L106.549 265.896L111.61 261.468L107 256.2ZM208.4 232.8H201.4V235.592L203.322 237.618L208.4 232.8ZM213.2 225L207.6 220.8L207.483 220.955L207.376 221.117L213.2 225ZM225.2 207.6L219.376 203.717L219.349 203.757L219.323 203.797L225.2 207.6ZM236.6 186.6L243.073 189.265L246.102 181.909L238.42 179.841L236.6 186.6ZM210.8 169.8L205.261 174.08L205.309 174.143L205.359 174.204L210.8 169.8ZM213.8 111L218.633 116.063L218.639 116.058L213.8 111ZM282.2 112.8L277.25 117.75L277.301 117.8L277.352 117.85L282.2 112.8ZM288.8 184.2L295.104 187.243L295.124 187.202L295.143 187.16L288.8 184.2ZM268.4 216.6L273.778 221.081L273.822 221.028L273.866 220.973L268.4 216.6ZM245.6 241.8L250.406 246.889L250.479 246.82L250.55 246.75L245.6 241.8ZM230.6 256.2L225.522 261.018L230.468 266.231L235.55 261.15L230.6 256.2ZM91.8 232.8C91.8 233.897 91.5309 234.706 91.4619 234.913C91.3558 235.231 91.2519 235.456 91.2105 235.543C91.126 235.722 91.0791 235.79 91.1399 235.689C91.2482 235.509 91.4849 235.142 91.9053 234.534C92.7285 233.345 94.0151 231.58 95.8 229.2L84.6 220.8C82.7849 223.22 81.3715 225.155 80.3947 226.566C79.9151 227.258 79.4768 227.916 79.1351 228.486C78.9709 228.76 78.7552 229.134 78.5582 229.55C78.4606 229.756 78.3145 230.083 78.1803 230.486C78.0832 230.777 77.8 231.653 77.8 232.8H91.8ZM95.8 229.2C99.5236 224.235 103.617 218.295 108.077 211.403L96.323 203.797C91.9826 210.505 88.0764 216.165 84.6 220.8L95.8 229.2ZM108.024 211.483C113.037 203.965 117.07 196.558 120.073 189.265L107.127 183.935C104.53 190.242 100.963 196.835 96.3757 203.717L108.024 211.483ZM115.42 179.841C106.45 177.426 99.1156 172.653 93.2407 165.396L82.3593 174.204C90.0844 183.747 99.9499 190.174 111.78 193.359L115.42 179.841ZM93.339 165.52C87.1796 157.549 84.6 150.415 84.6 144H70.6C70.6 154.385 74.8204 164.451 82.261 174.08L93.339 165.52ZM84.6 144C84.6 132.064 88.3871 122.98 95.6333 116.063L85.9667 105.936C75.6129 115.82 70.6 128.736 70.6 144H84.6ZM95.6386 116.058C103.401 108.634 113.207 104.8 125.6 104.8V90.8C109.993 90.8 96.5993 95.7662 85.9614 105.941L95.6386 116.058ZM125.6 104.8C135.878 104.8 145.362 108.862 154.25 117.75L164.15 107.85C153.038 96.738 140.122 90.8 125.6 90.8V104.8ZM154.352 117.85C163.055 126.204 167.2 135.811 167.2 147H181.2C181.2 131.789 175.345 118.596 164.048 107.75L154.352 117.85ZM167.2 147C167.2 159.174 164.626 170.764 159.457 181.84L172.143 187.76C178.174 174.836 181.2 161.226 181.2 147H167.2ZM159.457 181.84C154.097 193.326 147.614 203.609 140.022 212.719L150.778 221.681C159.186 211.591 166.303 200.274 172.143 187.76L159.457 181.84ZM140.022 212.719C132.157 222.157 124.747 230.144 117.794 236.711L127.406 246.889C134.853 239.856 142.643 231.443 150.778 221.681L140.022 212.719ZM117.794 236.711C110.596 243.508 105.481 248.228 102.39 250.932L111.61 261.468C114.919 258.572 120.204 253.692 127.406 246.889L117.794 236.711ZM112.078 251.382L89.8782 227.982L79.7218 237.618L101.922 261.018L112.078 251.382ZM215.4 232.8C215.4 233.773 215.187 234.495 215.13 234.688C215.045 234.977 214.96 235.183 214.926 235.263C214.858 235.426 214.822 235.485 214.876 235.382C214.976 235.196 215.188 234.826 215.562 234.219C216.294 233.029 217.438 231.262 219.024 228.883L207.376 221.117C205.762 223.538 204.506 225.471 203.638 226.881C203.212 227.574 202.824 228.229 202.524 228.793C202.378 229.065 202.192 229.43 202.024 229.83C201.94 230.029 201.818 230.337 201.707 230.711C201.625 230.988 201.4 231.777 201.4 232.8H215.4ZM218.8 229.2C222.524 224.235 226.617 218.295 231.077 211.403L219.323 203.797C214.983 210.505 211.076 216.165 207.6 220.8L218.8 229.2ZM231.024 211.483C236.037 203.965 240.07 196.558 243.073 189.265L230.127 183.935C227.53 190.242 223.963 196.835 219.376 203.717L231.024 211.483ZM238.42 179.841C229.45 177.426 222.116 172.653 216.241 165.396L205.359 174.204C213.084 183.747 222.95 190.174 234.78 193.359L238.42 179.841ZM216.339 165.52C210.18 157.549 207.6 150.415 207.6 144H193.6C193.6 154.385 197.82 164.451 205.261 174.08L216.339 165.52ZM207.6 144C207.6 132.064 211.387 122.98 218.633 116.063L208.967 105.936C198.613 115.82 193.6 128.736 193.6 144H207.6ZM218.639 116.058C226.401 108.634 236.207 104.8 248.6 104.8V90.8C232.993 90.8 219.599 95.7662 208.961 105.941L218.639 116.058ZM248.6 104.8C258.878 104.8 268.362 108.862 277.25 117.75L287.15 107.85C276.038 96.738 263.122 90.8 248.6 90.8V104.8ZM277.352 117.85C286.055 126.204 290.2 135.811 290.2 147H304.2C304.2 131.789 298.345 118.596 287.048 107.75L277.352 117.85ZM290.2 147C290.2 158.741 287.64 170.134 282.457 181.24L295.143 187.16C301.16 174.266 304.2 160.859 304.2 147H290.2ZM282.496 181.157C277.123 192.286 270.604 202.64 262.934 212.227L273.866 220.973C282.196 210.56 289.277 199.314 295.104 187.243L282.496 181.157ZM263.022 212.119C255.129 221.591 247.672 229.829 240.65 236.85L250.55 246.75C257.928 239.371 265.671 230.809 273.778 221.081L263.022 212.119ZM240.794 236.711C233.596 243.509 228.529 248.371 225.65 251.25L235.55 261.15C238.271 258.429 243.204 253.691 250.406 246.889L240.794 236.711ZM235.678 251.382L213.478 227.982L203.322 237.618L225.522 261.018L235.678 251.382Z" fill="#203049"/>
</svg>
