<svg width="311" height="240" viewBox="0 0 311 240" fill="none" xmlns="http://www.w3.org/2000/svg">
<mask id="mask0_326_4934" style="mask-type:alpha" maskUnits="userSpaceOnUse" x="0" y="0" width="303" height="240">
<rect width="303" height="240" rx="24" fill="#BFE3F8"/>
</mask>
<g mask="url(#mask0_326_4934)">
<path d="M-10.4458 52.5893C0.378853 43.7312 34.834 50.6636 38.2561 91.6115C44.2334 137.757 89.273 144.412 78.2504 179.247C70.2605 204.498 29.8619 187.225 19.9903 202.223C-2.7469 231.621 -46.1305 205.383 -48.887 172.648C-50.9468 148.187 -82.556 150.903 -82.4233 130.391C-82.2757 107.561 -62.7378 119.504 -49.6615 105.904C-30.6766 86.1577 -22.9877 62.8526 -10.4458 52.5893Z" fill="#779AAB"/>
<path fill-rule="evenodd" clip-rule="evenodd" d="M212.6 217.522C187.951 193.675 240.54 177.339 269.007 151.091C284.519 136.788 290.399 122.999 305.511 120.815C336.406 116.349 347.392 174.185 342.603 185.708C324.545 229.157 222.803 227.393 212.6 217.522Z" fill="#203049"/>
</g>
</svg>
