<svg width="648" height="497" viewBox="0 0 648 497" fill="none" xmlns="http://www.w3.org/2000/svg">
<path d="M508.957 377.934C489.575 399.202 485.382 404.925 467.773 424.423C456.592 436.803 446.693 441.52 437.644 446.832C418.169 458.263 407.055 466.23 384.653 470.578C369.857 473.451 361.123 472.469 346.026 472.204C313.326 471.63 294.328 469.728 263.268 459.944C227.989 448.83 210.896 435.701 180.061 415.916C150.314 396.83 133.289 385.805 108.371 361.208C85.2784 338.413 74.2005 323.634 56.8689 296.579C45.0557 278.138 36.4864 268.217 30.1063 247.476C23.2999 225.349 20.3321 211.18 25.2653 188.605C29.0877 171.114 34.2344 161.526 45.005 146.916C59.9524 126.641 74.5007 120.045 96.1169 106.306C114.487 94.6314 125.665 89.2275 145.798 80.6005C180.592 65.6913 202.007 61.3025 239.309 53.7245C271.415 47.2018 289.896 45.7644 322.559 42.6489C359.498 39.1254 380.35 37.2542 417.471 37.6046C463.711 38.0411 491.031 35.4495 535.388 47.9352C554.383 53.2821 565.934 55.327 582.671 65.4369C598.65 75.0893 607.504 81.9877 618.118 96.931C626.831 109.199 630.827 117.214 634.014 131.722C638.621 152.697 637.162 178.756 633.016 196.762C629.579 211.69 626.926 216.268 621.008 230.778C608.855 260.577 594.097 275.223 575.864 300.299C551.715 333.513 535.836 348.441 508.957 377.934Z" fill="#BFE3F8"/>
<ellipse cx="355.558" cy="400.765" rx="249.514" ry="20.8576" fill="#F6EDE5"/>
<path d="M296.301 138.554C296.17 137.105 298.64 135.575 298.64 135.575C301.808 135.142 308.752 134.287 311.116 134.085C311.116 134.085 309.289 130.668 310.336 128.871C311.2 127.388 312.712 125.763 314.235 126.636C318.133 128.871 321.411 132.122 323.592 137.065C324.453 139.016 325.151 142.279 325.151 142.279L319.693 150.473H315.794L297.86 140.789C297.86 140.789 296.396 139.599 296.301 138.554Z" fill="#F4BD9F"/>
<rect x="383.63" y="363.519" width="10.9162" height="13.4085" fill="#F4BD9F"/>
<path d="M458.485 376.183L448.349 376.928L446.01 366.499L445.23 363.519L456.926 362.029L458.485 376.183Z" fill="#F4BD9F"/>
<path d="M394.547 372.458H382.071C382.071 372.458 376.972 376.703 373.494 379.163C369.964 381.659 365.857 381.262 364.137 385.122C363.645 386.226 363.357 388.102 363.357 388.102L397.666 387.357C397.666 387.357 398.627 381.786 397.666 378.418C396.949 375.908 394.547 372.458 394.547 372.458Z" fill="#49326B"/>
<path d="M461.604 383.632C461.862 379.189 461.604 375.438 459.264 375.438H446.009C446.009 375.438 443.594 378.784 442.11 380.653C440.549 382.619 435.042 382.754 434.313 385.122C433.883 386.517 434.313 388.847 434.313 388.847H461.604C461.604 388.847 461.502 385.375 461.604 383.632Z" fill="#49326B"/>
<path d="M378.952 268.915L376.613 190.699H427.295C427.295 190.699 430.029 196.948 431.194 201.128C432.856 207.091 432.916 210.628 433.533 216.771C434.814 229.512 433.062 236.755 433.533 249.547C433.995 262.079 435.872 281.578 435.872 281.578C437.172 283.813 438.89 286.029 440.551 289.028C444.069 295.378 445.489 300.698 447.568 306.161C449.648 311.623 451.393 321.054 453.027 330.743C454.198 337.689 454.242 341.667 455.366 348.621C456.405 355.05 458.485 365.009 458.485 365.009L445.229 370.223C445.229 370.223 443.262 366.622 442.11 364.264C436.57 352.926 431.974 333.722 431.974 333.722L420.278 301.691C420.278 301.691 415.584 290.472 413.26 283.068C409.247 270.28 406.243 249.547 406.243 249.547H403.903C403.903 249.547 401.162 263.554 400.784 272.639C400.615 276.709 400.596 279 400.784 283.068C401.042 288.621 401.925 291.678 402.344 297.222C403.265 309.408 403.653 316.354 402.344 328.508C401.201 339.121 398.5 344.768 396.886 355.325C396.176 359.967 395.326 367.244 395.326 367.244H382.071V332.233L378.952 268.915Z" fill="#779AAB"/>
<path d="M396.886 210.066C396.886 210.066 398.31 222.406 400.005 230.179C401.678 237.847 405.463 249.547 405.463 249.547M413.261 201.872L424.957 210.066M424.957 210.066C424.957 210.066 425.833 226.415 426.516 236.883C427.561 252.894 429.635 277.853 429.635 277.853C429.635 277.853 441.551 298.039 446.009 312.12C451.346 328.974 452.247 356.815 452.247 356.815M424.957 210.066C424.957 210.066 423.769 206.207 423.007 203.734C422.246 201.262 421.058 197.403 421.058 197.403" stroke="#BFE3F8"/>
<path d="M380.51 99.819L395.325 100.564L412.479 102.799C413.779 103.295 414.839 103.344 416.378 103.544C419.697 103.974 423.152 105.906 424.955 103.544C425.356 103.018 426.113 102.595 425.735 102.054C424.175 99.819 421.056 96.0944 421.056 96.0944C421.056 96.0944 423.169 81.7915 421.056 73.0021C420.56 70.938 420.365 69.7366 419.497 67.7877C418.042 64.5199 416.8 62.7152 414.039 60.3385C411.904 58.5017 410.514 57.5165 407.801 56.6139C403.775 55.2745 401.097 55.9879 396.885 56.6139C394.404 56.9827 392.966 57.1848 390.647 58.1038C387.604 59.3092 385.718 60.1403 383.629 62.5733C381.727 64.7885 380.697 66.4179 380.51 69.2775C379.732 81.1961 380.51 99.819 380.51 99.819Z" fill="#92542E"/>
<path d="M384.409 87.1555C383.557 82.8685 384.409 75.9818 384.409 75.9818V73.747C384.409 73.747 385.877 73.3922 386.749 73.0021C388.514 72.2123 390.647 70.0225 390.647 70.0225H394.546C394.546 70.0225 395.037 73.2142 396.105 74.9434C397.025 76.4321 397.824 77.1222 399.224 78.2165C401.333 79.8638 405.462 81.1962 405.462 81.1962V96.8394L411.701 102.054C411.701 102.054 409.969 108.304 412.48 109.503C415.599 110.993 420.011 109.983 423.396 111.738C426.824 113.514 431.193 117.697 431.193 117.697C431.193 117.697 426.495 119.253 423.396 119.932C418.316 121.045 415.326 121.926 410.141 121.422C407.348 121.15 405.798 120.746 403.123 119.932C399.618 118.864 397.558 118.227 394.546 116.207C391.726 114.316 388.308 110.248 388.308 110.248L396.105 105.778V97.5843C396.105 97.5843 391.371 97.6546 389.088 96.0945C387.502 95.011 386.885 94.014 385.969 92.3699C384.927 90.5007 384.823 89.2362 384.409 87.1555Z" fill="#F4BD9F"/>
<path fill-rule="evenodd" clip-rule="evenodd" d="M457.705 155.688L431.974 117.697L388.309 110.248C388.309 110.248 384.419 110.374 382.071 110.993C378.122 112.034 376.725 113.817 374.274 116.952C372.284 119.496 371.526 121.533 370.579 124.078C370.284 124.871 369.97 125.714 369.595 126.636C366.897 133.275 366.036 137.724 364.83 143.955C364.614 145.07 364.387 146.242 364.137 147.494C363.442 150.97 362.578 156.433 362.578 156.433L325.15 140.045L318.913 148.984C318.913 148.984 319.679 151.337 320.472 152.708C323.332 157.652 332.948 160.902 332.948 160.902C332.948 160.902 333.09 163.71 333.728 165.372C334.99 168.661 336.53 170.851 339.965 172.076C341.167 172.505 342.282 172.214 343.362 171.932C344.588 171.612 345.77 171.304 346.983 172.076C349.009 173.366 350.352 174.836 351.647 176.252C353.341 178.106 354.951 179.868 357.899 181.015C364.103 183.43 375.053 181.015 375.053 181.015C375.053 181.015 373.25 185.273 374.274 187.719C374.839 189.07 376.613 190.699 376.613 190.699H422.617H426.516C426.516 190.699 426.668 190.227 426.895 189.437C431.503 188.072 438.366 186.018 439.771 185.485C440.341 185.268 440.85 185.086 441.327 184.914C442.656 184.438 443.743 184.049 445.229 183.25C451.821 179.706 457.705 169.096 457.705 169.096C457.705 169.096 458.485 165.026 458.485 162.392C458.485 159.758 457.705 155.688 457.705 155.688ZM438.991 164.627C439.908 165.378 434.159 169.912 428.229 174.226C428.063 173.819 427.876 173.447 427.68 173.056C426.959 171.619 426.11 169.929 425.736 165.372C425.617 163.924 425.31 162.517 425.015 161.166C424.245 157.64 423.558 154.492 426.516 151.963C427.334 151.264 428.855 150.473 428.855 150.473C430.414 153.205 433.533 159.412 433.533 159.412C433.533 159.412 437.172 163.137 438.991 164.627Z" fill="#FAE756"/>
<path d="M407.801 189.209C409.557 185.626 416.378 183.25 416.378 183.25L420.276 184.739L422.615 189.954C422.615 189.954 420.526 196.448 417.157 198.893C415.531 200.073 414.518 201.013 412.479 201.127C410.556 201.236 408.983 201.09 407.801 199.638C406.847 198.467 407.021 195.913 407.021 195.913C407.021 195.913 406.631 191.594 407.801 189.209Z" fill="#F4BD9F"/>
<path d="M389.089 119.187L373.494 139.299C373.494 139.299 370.698 143.631 370.375 146.749C369.901 151.326 372.984 153.491 374.274 157.922C374.947 160.234 375.833 163.882 375.833 163.882L375.054 178.035M363.358 157.177C363.358 157.177 367.252 158.894 368.816 160.902C371.206 163.972 370.375 170.586 370.375 170.586M329.049 145.259L322.812 155.688M448.348 151.218L438.212 163.137M441.822 158.892L453.807 156.433" stroke="#FFF289"/>
<path d="M153.912 398.963C156.484 394.866 160.773 385.853 160.773 385.853L175.354 385.033C175.354 386.126 175.082 388.047 175.354 389.949C175.841 393.364 177.069 398.143 177.069 398.143L172.781 400.601C172.781 400.601 169.19 401.902 166.777 402.24C164.126 402.612 159.916 402.24 159.916 402.24C159.916 402.24 152.523 401.175 153.912 398.963Z" fill="#7D131B"/>
<path d="M176.21 384.214L182.214 374.381L195.937 375.201V378.478C195.937 379.577 204.793 392.688 207.293 396.368C207.638 396.876 207.444 397.563 206.891 397.827L204.513 398.963L176.21 384.214Z" fill="#7D131B"/>
<path d="M181.618 49.0713C198.414 50.199 195.064 46.7448 216.617 47.6027C218.369 47.6725 226.442 51.0425 227.358 52.4705C228.473 54.2078 229.744 55.1102 229.781 57.1478C229.816 59.1012 229.004 60.2285 227.714 61.7442C225.93 63.8398 221.361 65.0619 221.361 65.0619C221.361 65.0619 194.832 62.1807 183.549 60.4327C178.357 59.6282 176.034 66.2494 170.844 67.0681C168.141 67.4943 167.113 67.1402 165.101 66.7928C162.786 66.3931 161.597 65.0842 160.493 63.6206C159.389 62.1571 159.012 61.7127 159.121 60.3353C159.282 58.3031 162.441 55.9331 162.441 55.9331L173.292 48.4602C173.341 48.4263 173.398 48.4103 173.459 48.4157C174.152 48.4769 178.648 48.8718 181.618 49.0713Z" fill="#F4BD9F"/>
<path d="M184.041 57.2834L182.325 43.354L163.456 51.5477C163.456 51.5477 161.406 54.6847 161.741 55.6446L162.599 58.1027C162.851 58.8263 164.185 58.9246 164.827 58.9292C164.997 58.9304 165.127 59.0918 165.084 59.2566L164.36 62.0234C164.333 62.1284 164.242 62.2034 164.133 62.2053C163.544 62.2154 161.679 62.181 160.883 61.3802C160.368 60.8612 160.452 60.3298 160.026 59.7415C159.178 58.572 157.126 57.5391 156.681 57.3243C156.632 57.3008 156.576 57.321 156.553 57.3698C156.396 57.6968 155.85 58.8834 155.737 59.7415C155.526 61.3605 155.515 62.5741 156.595 63.8384C157.542 64.9472 160.026 65.4771 160.026 65.4771L161.741 82.684L177.179 91.6971L178.037 85.1421L177.179 72.0321C177.179 72.0321 178.23 72.1115 178.895 72.0321C181.291 71.7459 182.558 70.576 184.041 68.7546C186.919 65.2185 184.041 57.2834 184.041 57.2834Z" fill="#F4BD9F"/>
<path d="M149.719 65.654C152.312 67.6286 160.77 69.5741 160.77 69.5741L160.01 65.4772C160.01 65.4772 157.575 64.908 156.579 63.8385C154.799 61.9252 156.482 57.2835 157.339 58.1029C158.197 58.9222 158.581 59.0841 160.01 59.9184C161.288 60.6646 162.242 62.4158 163.441 61.5572C164.04 61.1279 164.828 60.4244 164.298 59.9184C161.725 57.4603 163.441 53.3634 163.441 53.3634C163.441 53.3634 164.733 51.1585 166.871 50.0859C168.947 49.0447 170.509 48.538 172.875 47.6278C176.512 46.2289 182.309 44.3503 182.309 44.3503C182.309 44.3503 183.333 38.3677 183.167 34.5178C183.056 31.9402 184.104 29.891 182.309 27.9628C181.507 27.1005 180.82 26.8341 179.736 26.3241C175.52 24.3385 172.18 25.6969 167.729 27.1434C164.031 28.3454 162.331 29.8907 159.152 32.0597C152.6 36.5311 147.026 41.1202 144.572 48.4472C142.939 53.3234 143.716 55.0022 144.572 59.099C145.084 61.5498 147.126 63.6795 149.719 65.654Z" fill="black"/>
<path d="M150.48 199.035L207.944 191.661C207.944 191.661 213.397 209.08 216.521 220.339C222.33 241.273 223.382 252.294 229.386 274.417C230.142 277.205 230.444 279.095 229.386 281.792C216.521 314.567 212.232 328.496 201.083 362.09C200.26 364.569 199.642 372.215 199.439 374.996C199.398 375.557 198.905 375.978 198.345 375.927L182.447 374.48C181.861 374.427 181.447 373.885 181.552 373.306C181.897 371.408 182.617 367.394 183.071 364.549C184.294 356.898 184.717 352.572 185.644 344.884C186.762 335.616 186.886 331.183 188.218 321.941C189.561 312.613 189.933 310.47 192.506 300.637C193.851 295.499 198.51 285.069 198.51 285.069C198.51 285.069 198.25 280.536 197.652 277.695C196.816 273.727 195.601 271.689 194.221 267.862C191.729 260.953 187.794 251.084 186.273 247.299C186.087 246.837 185.422 246.905 185.329 247.394C184.659 250.941 183.082 259.441 182.214 265.404C177.733 296.161 180.859 313.852 179.641 344.884C179.097 358.739 178.175 379.453 177.968 384.09C177.944 384.624 177.504 385.033 176.969 385.033H159.996C159.468 385.033 159.031 384.627 158.999 384.1C158.852 381.747 158.461 375.451 158.199 371.104C154.149 303.956 150.48 199.035 150.48 199.035Z" fill="#CEA168"/>
<path d="M164.202 199.854C164.202 199.854 163.14 206.488 161.629 210.506C160.11 214.546 160.14 217.843 156.483 220.339C155.264 221.17 153.052 221.977 153.052 221.977M188.217 367.826C188.217 367.826 193.083 349.385 195.936 337.509C200.754 317.447 207.552 306.468 207.086 285.889C206.932 279.14 206.897 275.272 205.37 268.682C202.1 254.567 187.359 235.907 187.359 235.907C187.359 235.907 187.815 222.911 187.359 214.603C186.989 207.862 185.644 197.396 185.644 197.396" stroke="#92542E"/>
<path d="M176.348 89.2646L161.63 81.8644C161.63 81.8644 147.188 87.5956 139.331 93.3356C137.253 94.8538 136.041 95.6712 134.185 97.4325C131.476 100.004 130.491 101.901 128.181 104.807L128.026 105.002C118.06 117.54 111.845 125.359 104.166 138.401C101.539 142.864 103.857 151.265 104.139 152.238C104.157 152.299 104.197 152.348 104.252 152.38L108.212 154.65C108.342 154.724 108.506 154.669 108.563 154.531C108.754 154.066 109.147 153.066 109.312 152.331C109.734 150.453 107.873 149.182 109.312 147.414C110.054 146.504 110.637 145.204 111.885 144.137C113.403 142.84 116.396 141.875 116.944 141.705C117.001 141.688 117.06 141.691 117.114 141.715C117.518 141.893 119.312 142.693 120.462 143.317C122.967 144.678 124.3 145.599 126.466 147.414C127.89 148.608 128.562 149.407 129.897 150.692C136.737 157.28 147.05 167.899 147.05 167.899L146.192 195.757C146.192 195.757 148.214 199.425 150.481 200.674C153.108 202.121 158.2 201.493 158.2 201.493L209.66 190.841C209.66 190.841 209.104 186.85 208.802 184.286C207.566 173.773 207.087 157.247 207.087 157.247L206.23 100.781C206.23 100.735 206.241 100.691 206.264 100.651C206.641 100.021 209.965 94.4621 212.233 90.8775C219.104 80.016 225.956 75.3094 231.102 63.8381C232.421 60.897 233.072 58.2322 231.102 55.6444C230.43 54.762 229.079 53.94 228.288 53.5063C228.082 53.3937 227.854 53.6084 227.938 53.8272C228.203 54.5143 228.564 55.6203 228.529 56.4638C228.385 59.8625 224.822 60.6227 221.667 62.1994C215.435 65.3142 203.656 62.1994 203.656 62.1994L177.068 78.5869L177.794 88.2966C177.852 89.0718 177.042 89.6138 176.348 89.2646Z" fill="#F44B57"/>
<path d="M181.355 79.4063V98.252L159.914 85.9613M203.655 68.7545C203.655 68.7545 208.625 72.1143 212.232 72.032C216.427 71.9362 221.666 67.1157 221.666 67.1157M202.797 83.5032C202.797 83.5032 203.146 90.4947 203.369 94.9745M203.655 100.71C203.655 100.71 203.481 97.2144 203.369 94.9745M195.078 86.7807C195.078 86.7807 200.131 91.7746 203.369 94.9745M134.184 98.252L142.76 105.626M105.88 142.498C105.88 142.498 111.919 136.082 117.03 135.943C119.791 135.868 121.45 136.347 123.891 137.582C127.456 139.385 130.753 144.956 130.753 144.956M154.768 156.428C154.768 156.428 156.555 165.887 157.341 171.996C158.447 180.594 159.056 194.119 159.056 194.119M171.063 195.758C171.063 195.758 175.989 191.78 179.64 190.022C187.508 186.234 201.94 186.744 201.94 186.744" stroke="#C1343E"/>
<path d="M150.48 102.349C147.872 97.9454 142.761 91.697 142.761 91.697L149.623 87.6001C149.623 87.6001 153.135 90.8322 154.769 93.3357C156.677 96.2604 157.758 98.3143 159.057 101.529C160.087 104.08 160.26 106.214 160.772 108.904C162.488 117.917 159.915 131.027 159.915 131.027C159.915 131.027 158.431 138.037 157.342 142.498C156.4 146.353 156.099 148.582 154.769 152.331C152.988 157.347 148.765 164.621 148.765 164.621L147.907 195.758C147.907 195.758 146.33 195.887 145.334 195.758C143.547 195.525 142.564 195.049 141.046 194.119C138.226 192.392 137.621 191.091 135.899 188.383C133.748 185 133.416 182.185 132.469 178.551C130.285 170.167 132.469 165.067 132.469 156.428C132.469 151.948 130.863 149.165 132.469 144.956C134.746 138.989 145.334 127.287 145.334 134.304C145.334 141.679 144.477 149.053 145.334 153.969C145.499 154.916 147.409 154.803 147.907 153.969C151.338 148.234 151.943 145.71 153.053 140.04C153.734 136.566 153.673 134.554 153.911 131.027C154.492 122.405 157.011 117.02 153.911 108.904C152.884 106.215 151.955 104.84 150.48 102.349Z" fill="#779AAB"/>
<path d="M144.023 177.345C130.593 166.737 107.657 152.6 107.657 152.6C107.657 152.6 107.521 149.902 107.657 148.181C107.822 146.088 107.325 144.603 108.589 142.879C109.801 141.227 111.202 140.752 113.252 140.228C116.086 139.503 120.711 141.111 120.711 141.111C120.711 141.111 141.225 158.786 149.618 166.74C153.48 170.401 159.645 166.205 164.537 168.508C167.084 169.707 167.725 170.594 169.199 172.043C170.895 173.709 171.064 175.486 171.064 177.345C171.064 179.204 171.099 179.792 170.132 180.88C168.705 182.486 164.537 182.648 164.537 182.648L150.64 182.648C150.582 182.648 150.528 182.629 150.483 182.592C149.955 182.156 146.405 179.226 144.023 177.345Z" fill="#F4BD9F"/>
<path d="M525.593 371.132L521.518 208.421L457.14 202.193L447.361 365.683L479.143 368.797L488.922 251.24L494.626 371.132H525.593Z" fill="#BDCA9E"/>
<path d="M522.333 365.683H497.886M475.069 363.348C473.765 363.348 459.857 361.272 453.066 360.234M512.555 212.314C513.828 215.658 514.541 217.533 515.814 220.878C517.087 224.222 520.704 227.884 520.704 227.884M488.922 214.649V232.555M488.922 251.24V232.555M482.403 214.649C482.403 214.649 480.713 222.859 483.218 227.106C484.764 229.728 488.922 232.555 488.922 232.555M465.29 209.978C465.29 209.978 464.586 215.501 462.845 218.542C461.221 221.377 457.141 224.77 457.141 224.77" stroke="#415939"/>
<path d="M518.259 114.22L519.889 143.804M461.215 119.669L458.77 154.703" stroke="black"/>
<path d="M519.888 93.1992C513.369 90.0851 500.33 88.5281 500.33 88.5281C500.33 88.5281 494.894 95.5043 489.736 97.0918C488.191 97.5672 487.273 98.0547 485.661 97.8704C481.804 97.4291 479.957 90.0851 479.957 90.0851C479.957 90.0851 473.315 92.059 469.363 93.9777C465.664 95.7739 463.069 96.3933 460.399 99.4274C456.966 103.328 456.201 107.773 454.695 112.662C450.992 124.688 448.175 143.025 448.175 143.025C448.175 143.025 452.462 145 454.695 146.917C456.543 148.505 457.62 149.483 458.769 151.589C461.271 156.171 458.998 159.66 458.769 164.823C458.485 171.231 457.606 174.774 457.139 181.173C456.542 189.367 456.325 202.193 456.325 202.193C456.325 202.193 472.978 211.762 484.846 212.313C486.754 212.402 487.826 212.313 489.736 212.313C495.464 212.313 498.721 212.999 504.404 212.313C511.3 211.481 521.517 207.642 521.517 207.642L520.703 143.025C520.703 143.025 526.424 147.019 529.667 150.032C532.414 152.584 536.186 155.481 536.186 157.038V162.488C536.186 162.488 534.556 164.304 533.741 164.823C532.926 165.342 532.947 166.653 533.741 167.159C534.271 167.496 534.74 167.241 535.371 167.159C537.21 166.92 538.157 166.099 539.446 164.823C540.928 163.356 541.202 162.083 541.89 160.152C543.531 155.547 542.206 152.551 541.89 147.696C541.082 135.255 539.329 128.156 534.556 116.555C531.276 108.582 532.197 107.334 527.223 100.206C525.593 97.8704 521.9 94.1608 519.888 93.1992Z" fill="#203049"/>
<path d="M521.408 143.027C527.506 147.794 536.077 156.262 536.077 156.262C536.077 156.262 537.381 159.613 536.892 161.712C536.392 163.852 535.604 165.261 533.632 166.383C531.969 167.329 530.678 167.177 528.742 167.162C526.118 167.14 524.657 166.543 522.223 165.604C519.844 164.687 518.718 163.753 516.519 162.49C498.343 152.059 476.541 128.623 473.65 125.474C473.441 125.245 473.36 124.943 473.405 124.636C473.647 122.968 474.282 117.399 472.513 114.222C471.772 112.89 470.222 111.284 469.562 110.629C469.367 110.436 469.254 110.173 469.254 109.898V107.155C469.254 106.726 469.527 106.345 469.94 106.227C470.785 105.985 472.243 105.625 473.328 105.658C476.603 105.756 478.351 107.332 480.663 109.551C482.282 111.104 482.97 112.227 483.922 114.222C485.012 116.503 484.308 118.242 485.552 120.45C486.306 121.789 487.997 123.564 487.997 123.564C487.997 123.564 509.581 133.782 521.408 143.027Z" fill="#F4BD9F"/>
<path d="M469.364 45.7096C469.364 45.7096 466.453 59.4626 469.364 67.5083C470.527 70.721 470.179 70.6224 471.809 73.7365C472.72 75.4778 474.832 78.4044 476.698 79.1862C477.919 79.6974 478.859 79.8335 479.958 79.8963V94.7567C479.958 94.7567 482.163 97.0975 484.033 97.8708C485.522 98.4866 486.485 98.6283 488.107 98.6493C493.975 98.7254 499.516 89.307 499.516 89.307L499.142 71.401C499.811 70.6556 500.477 69.8752 501.146 69.0654C505.393 63.9245 507.665 53.4949 507.665 53.4949L470.994 39.4814L469.364 45.7096Z" fill="#F4BD9F"/>
<path d="M514.183 56.6093C510.857 64.1478 499.514 72.1798 499.514 72.1798C499.514 72.1798 498.982 72.0148 498.699 71.8157C497.538 70.9984 498.507 69.6528 498.699 68.2872C498.969 66.3816 499.376 65.6335 500.329 63.616C501.093 62.0002 502.837 60.7167 502.774 58.9449C502.726 57.586 502.436 56.4006 501.144 55.8308C500.277 55.4486 499.635 55.649 498.699 55.8308C495.581 56.4368 496.929 61.453 493.81 62.059C492.874 62.2408 491.365 62.059 491.365 62.059V55.0523H486.476C485.879 55.0523 483.416 51.1389 481.962 48.685C481.737 48.3056 481.295 48.1142 480.861 48.1964C479.372 48.479 475.963 48.9795 474.252 48.0456L468.548 44.9315C466.32 43.7153 461.251 41.3759 459.584 37.1462C458.791 35.1344 458.22 33.7814 458.769 31.6965C459.594 28.5623 463.06 26.8549 465.288 26.2469C467.516 25.6388 468.717 25.0511 470.992 25.4683C473.433 25.9159 473.507 27.8808 475.882 28.5824C477.706 29.1214 478.882 28.8466 480.771 28.5824C482.07 28.4009 482.758 28.108 484.031 27.8039C486.577 27.1959 487.954 25.8788 490.55 26.2469C492.662 26.5463 494.061 27.0255 495.44 28.5824C496.74 30.0503 497.07 33.2536 497.07 33.2536H506.441C506.702 33.2536 506.953 33.3548 507.125 33.5516C507.59 34.0834 508.478 35.2456 508.478 36.3677V40.2603C508.478 40.2603 513.67 44.3643 514.998 48.0456C515.526 49.5113 515.867 50.3888 515.813 51.9382C515.745 53.86 514.965 54.8374 514.183 56.6093Z" fill="black" stroke="black"/>
<rect width="11.4088" height="10.8993" transform="matrix(-1 0 0 1 519.073 371.911)" fill="#F4BD9F"/>
<rect width="11.4054" height="14.0179" transform="matrix(-0.996942 -0.0781442 -0.0855673 0.996332 465.29 366.574)" fill="#F4BD9F"/>
<path d="M533.743 394.489C529.667 389.818 519.889 381.254 519.889 381.254H507.665C507.013 381.254 506.307 383.849 506.036 385.147L504.406 393.71L510.11 394.489L533.743 396.824C533.743 396.824 534.354 395.19 533.743 394.489Z" fill="#7D131B"/>
<path d="M467.735 392.932L465.473 382.128C465.36 381.59 464.961 381.156 464.434 380.998L452.776 377.518C452.437 377.417 452.079 377.436 451.757 377.582C449.763 378.487 442.043 382.118 434.323 387.482C433.294 388.197 434.323 390.596 434.323 390.596L467.735 392.932Z" fill="#7D131B"/>
<path d="M453.5 145.361C456.664 147.425 459.205 150.81 459.205 150.81C459.205 150.81 461.893 157.561 459.205 160.153C457.14 162.144 454.804 161.766 451.871 161.71C448.549 161.646 443.721 159.374 443.721 159.374C443.721 159.374 429.052 149.203 416.014 146.918C413.179 146.421 411.397 144.842 408.68 144.582C405.964 144.323 399.716 143.804 399.716 143.804C399.716 143.804 393.342 142.029 390.752 139.132C389.828 138.099 389.363 136.973 388.829 136.036C388.565 135.572 388.625 134.967 389.042 134.634C389.712 134.1 390.723 133.341 391.567 132.904C395.495 130.873 402.976 132.126 402.976 132.126L402.365 128.626C402.259 128.015 402.729 127.455 403.351 127.455H405.007C405.272 127.455 405.525 127.559 405.713 127.745C406.306 128.33 407.676 129.672 408.68 130.569C411.658 133.227 413.35 134.77 416.829 136.797C427.283 142.886 434.756 137.575 447.795 143.025C449.751 143.843 451.737 144.21 453.5 145.361Z" fill="#F4BD9F"/>
<path d="M226.611 364.241L223.558 216.955L301.912 206.377L307 280.426L309.036 359.358L283.596 360.986L265.279 256.828L259.174 364.241H226.611Z" fill="#779AAB"/>
<path d="M230.684 382.142L231.702 361.799L250.018 360.172C250.018 360.172 247.119 365.523 245.948 369.123C244.335 374.082 243.913 382.142 243.913 382.142H230.684Z" fill="#F4BD9F"/>
<path d="M290.722 382.142L288.687 358.544L304.968 354.476V382.142H290.722Z" fill="#F4BD9F"/>
<path d="M325.29 92.1618L311.706 156.957C311.706 156.957 314.764 159.648 317.368 160.462C322.732 162.139 326.815 160.055 331.666 157.572C334.376 156.185 337.021 153.608 337.026 142.476C337.026 141.723 340.004 97.9432 340.004 97.9432C340.004 97.9432 349.567 89.1988 350.753 82.2894C351.329 78.9321 352.061 76.7141 350.337 73.6182C348.842 70.9317 343.94 68.0929 343.94 68.0929C343.94 68.0929 339.934 67.7725 338.822 70.5994L335.975 77.8381C334.863 80.6649 330.665 84.3349 330.665 84.3349C330.665 84.3349 329.661 76.7604 325.995 77.5307C324.217 77.9043 322.351 78.626 322.54 80.0884C323.148 84.7694 325.29 92.1618 325.29 92.1618Z" fill="#F4BD9F"/>
<path d="M233.737 58.2777C234.076 59.3627 247.983 69.6699 247.983 69.6699L277.493 53.3953V44.4443C277.493 44.4443 278.167 43.9854 278.512 43.6306C279.756 42.3519 280.548 41.1896 279.529 39.562C278.996 38.7094 278.644 38.1853 277.493 37.9344C275.325 37.4614 274.134 36.3849 273.423 34.6795C273.096 33.8944 273.195 32.7519 273.304 32.0502C273.353 31.7296 273.11 31.4246 272.786 31.4246H269.682C269.532 31.4246 269.431 31.5852 269.489 31.7237C269.721 32.2831 270.1 33.4673 269.353 33.8658C268.691 34.2183 268.096 33.9929 267.318 33.8658C264.824 33.4589 265.792 29.7971 263.247 29.7971H253.071C251.947 29.7971 251.036 31.4246 251.036 31.4246C251.036 31.4246 247.899 31.7996 245.948 32.2383C244.738 32.5104 243.611 32.2258 242.895 33.052C242.217 33.8359 243.209 34.5735 242.895 35.4932C242.662 36.1788 242.506 36.6182 241.878 37.1207C240.989 37.8313 239.841 37.3425 238.825 37.9344C237.667 38.6093 238.034 39.8072 236.79 40.3756C235.41 41.0063 233.673 39.3587 232.72 40.3756C232.004 41.1383 232.597 41.8685 232.72 42.8168C232.888 44.1201 233.659 44.763 233.737 46.0717C233.834 47.6903 232.917 48.5277 232.72 50.1404C232.526 51.7217 232.72 53.5581 232.72 54.209C232.72 54.86 233.398 57.1927 233.737 58.2777Z" fill="#92542E"/>
<path d="M261.214 81.0623C254.138 79.6074 247.985 70.4838 247.985 70.4838C247.985 70.4838 247.811 66.4458 246.968 63.974C246.637 63.0045 245.95 61.5328 245.95 61.5328V55.8367C245.95 55.8367 248.442 55.9874 250.021 55.8367C254.965 55.3646 256.416 52.0191 261.214 50.9543C264.301 50.2692 266.208 49.6586 269.355 50.1406C273.037 50.7046 277.495 54.2092 277.495 54.2092V65.6015V74.5525C277.495 74.5525 274.282 79.7833 270.372 81.0623C267.062 82.1452 264.678 81.7746 261.214 81.0623Z" fill="#F4BD9F"/>
<path d="M216.437 108.729C226.613 98.9644 250.017 91.6409 250.017 91.6409H272.404C272.404 91.6409 284.452 94.9932 290.721 98.9644C294.245 101.197 296.302 102.518 298.861 105.474C300.843 107.763 301.593 109.278 302.852 111.822L302.932 111.984C304.599 115.353 304.423 117.534 305.985 120.935C308.805 127.078 316.16 135.582 316.16 135.582C316.16 135.582 314.999 143.012 315.143 147.788C315.249 151.297 315.513 153.961 318.196 156.739C320.367 158.989 320.75 159.874 324.301 159.994C327.693 160.11 332.442 157.553 332.442 157.553L327.354 164.063C327.354 164.063 319.965 165.963 315.143 165.69C308.22 165.299 298.861 159.994 298.861 159.994L301.914 206.377L280.545 215.328C280.545 215.328 274.397 216.598 270.369 216.955C265.234 217.412 262.306 216.955 257.14 216.955H223.56L222.542 173.828C222.542 173.828 214.678 175.396 210.331 173.828C207.502 172.807 206.045 171.77 204.226 169.759C202.015 167.317 201.173 162.435 201.173 162.435C201.173 162.435 204.149 149.026 206.261 140.465C208.855 129.947 210.331 124.19 213.384 113.612C213.983 111.534 214.73 110.367 216.437 108.729Z" fill="#BDCA9E"/>
<path d="M251.036 93.2683V75.3662L271.388 77.8074V93.2683C271.388 93.2683 267.269 98.1507 265.282 98.1507C263.295 98.1507 262.148 98.44 260.194 98.1507C255.968 97.5248 251.036 93.2683 251.036 93.2683Z" fill="#F4BD9F"/>
<path d="M265.002 139.412L205.1 159.609C205.1 159.609 204.141 162.935 204.75 164.977C206.003 169.184 210.2 170.587 215.192 172.251C217.98 173.18 221.883 173.432 222.746 173.585C223.609 173.737 267.301 151.583 267.301 151.583C267.301 151.583 280.855 152.802 288.156 149.835C291.703 148.393 294.234 147.657 296.299 144.937C298.09 142.577 298.205 138.033 298.205 138.033C298.205 138.033 296.369 135.39 293.047 136.217L284.54 138.336C281.217 139.163 275.43 138.538 275.43 138.538C275.43 138.538 282.199 133.864 279.494 132.015C278.182 131.118 276.486 130.353 275.177 131.253C270.986 134.133 265.002 139.412 265.002 139.412Z" fill="#F4BD9F"/>
<path d="M208.778 392.721C208.778 392.721 207.75 390.852 208.704 390.28C212.776 387.839 219.426 382.956 219.426 382.956L230.147 375.633L243.376 376.447C243.376 376.447 248.796 383.03 249.481 387.839C249.751 389.733 249.481 392.721 249.481 392.721H208.778Z" fill="#203049"/>
<path d="M292.22 393.535C283.419 393.032 291.202 376.447 291.202 376.447H308.501C308.501 376.447 311.292 382.391 314.535 385.398C317.494 388.141 319.623 388.653 323.693 391.094C324.491 391.572 324.005 392.956 323.825 393.398C323.79 393.483 323.718 393.537 323.625 393.541C321.959 393.616 305.719 394.306 292.22 393.535Z" fill="#203049"/>
<path d="M530.274 382.435L531.054 363.812L545.089 362.322C545.089 362.322 542.868 367.221 541.97 370.516C540.734 375.056 540.411 382.435 540.411 382.435H530.274Z" fill="#F4BD9F"/>
<path d="M576.279 382.435L574.719 360.832L587.195 357.108V382.435H576.279Z" fill="#F4BD9F"/>
<path d="M513.121 395.099C513.982 387.282 529.495 382.435 529.495 382.435L539.632 383.18C539.632 383.18 543.785 389.206 544.31 393.609C544.517 395.343 544.31 398.078 544.31 398.078H513.121C513.121 398.078 512.993 396.256 513.121 395.099Z" fill="#9F92D4"/>
<path d="M577.059 398.823C570.315 398.363 576.279 383.18 576.279 383.18H589.534C589.534 383.18 594.976 386.682 597.331 389.884C599.302 392.563 600.783 397.303 601.145 398.528C601.19 398.681 601.084 398.831 600.925 398.839C598.883 398.944 587.001 399.502 577.059 398.823Z" fill="#9F92D4"/>
<path d="M531.054 231.962C532.677 223.33 533.393 209.615 533.393 209.615L582.516 205.146L585.635 217.064C587.158 222.882 588.055 226.134 589.534 231.962C594.235 250.484 597.679 260.764 600.45 279.637C601.641 287.75 601.983 292.339 602.789 300.495C603.91 311.823 603.809 318.237 605.129 329.546C606.321 339.768 609.027 355.618 609.027 355.618C609.027 355.618 591.071 359.774 579.397 361.578C555.003 365.347 540.411 363.068 516.239 365.302C515.146 365.403 514.68 363.068 514.68 363.068C514.68 363.068 515.957 330.337 517.799 309.434C519.624 288.722 519.364 276.845 524.036 256.545C526.273 246.826 529.213 241.756 531.054 231.962Z" fill="#CEA168"/>
<path d="M526.376 143.318C533.175 134.274 551.327 127.674 551.327 127.674H570.821C570.821 127.674 585.761 132.574 591.873 139.593C595.619 143.895 598.891 146.661 598.891 152.257C598.891 164.175 599.671 171.624 599.671 184.288C599.671 187.389 597.617 188.97 595.104 190.906L594.992 190.992C592.218 193.13 586.415 193.972 586.415 193.972C586.415 195.213 586.745 196.725 586.415 198.441C585.774 201.778 583.296 203.656 581.737 205.89C581.737 205.89 572.38 209.118 567.702 209.615C563.023 210.112 558.227 211.008 552.107 211.105C544.775 211.221 544.57 210.857 538.852 210.36C533.134 209.863 530.275 208.125 530.275 208.125V197.696C530.275 197.696 524.716 197.711 521.697 196.207C518.643 194.684 516.549 193.37 515.46 190.247C514.689 188.039 515.367 186.613 515.46 184.288C515.753 176.928 516.812 172.834 518.579 165.665C520.785 156.71 520.758 150.789 526.376 143.318Z" fill="#F6EDE5"/>
<path d="M534.173 217.809C534.173 217.809 548.956 218.745 558.345 217.809C563.872 217.258 566.142 217.064 572.38 215.574C575.334 214.869 578.618 211.105 578.618 211.105M534.173 265.484C534.173 265.484 531.114 288.616 529.495 303.474C527.722 319.742 525.596 345.19 525.596 345.19M536.512 320.607V348.169M565.363 279.637C565.363 279.637 569.827 301.77 570.821 316.138C571.684 328.62 570.821 348.169 570.821 348.169M587.975 261.759C587.975 261.759 593.644 281.992 594.992 295.28C596.285 308.02 594.992 328.056 594.992 328.056" stroke="#92542E"/>
<rect width="34.0613" height="52.0135" rx="1" transform="matrix(0.961293 -0.282667 0.306002 0.94979 538.886 149.797)" fill="#F44B57"/>
<path d="M542.868 155.463L571.599 146.9M555.514 191.068L582.442 182.183" stroke="#7D131B"/>
<rect width="29.9937" height="37.1087" rx="1" transform="matrix(0.938946 -0.344065 0.372584 0.927999 524.817 164.67)" fill="#BDCA9E"/>
<path d="M528.716 167.759L552.108 158.82M540.412 194.576L560.685 186.381" stroke="#415939"/>
<path d="M556.786 161.196L519.359 186.523C519.359 186.523 519.331 189.4 520.138 190.992C521.802 194.273 524.96 194.818 528.715 195.462C530.813 195.822 533.55 195.462 534.173 195.462C534.797 195.462 560.684 170.88 560.684 170.88C560.684 170.88 570.254 169.913 574.719 166.41C576.889 164.708 578.493 163.735 579.398 161.196C580.183 158.993 579.398 155.236 579.398 155.236C579.398 155.236 577.631 153.328 575.499 154.492L570.041 157.471C567.91 158.635 563.803 158.961 563.803 158.961C563.803 158.961 567.578 154.131 565.363 153.002C564.288 152.454 562.975 152.071 562.244 153.002C559.904 155.981 556.786 161.196 556.786 161.196Z" fill="#F4BD9F"/>
<path d="M546.553 170.721L592.16 177.95C592.16 177.95 593.51 180.547 593.512 182.331C593.514 186.005 590.902 187.827 587.793 189.99C586.056 191.198 583.409 192.023 582.844 192.285C582.278 192.547 547.479 181.142 547.479 181.142C547.479 181.142 538.355 184.289 532.693 182.99C529.941 182.359 528.038 182.151 526.048 180.229C524.321 178.561 523.302 174.825 523.302 174.825C523.302 174.825 524.026 172.352 526.495 172.51L532.817 172.917C535.286 173.076 539.16 171.645 539.16 171.645C539.16 171.645 533.511 168.853 535 166.897C535.722 165.949 536.737 165.049 537.828 165.586C541.322 167.304 546.553 170.721 546.553 170.721Z" fill="#F4BD9F"/>
<path d="M541.971 94.153L542.751 100.112L570.042 117.99L570.822 127.674L591.874 139.593V129.164C591.874 129.164 587.559 122.68 586.416 117.99C585.653 114.861 585.06 112.962 585.636 109.796C585.967 107.984 586.707 107.106 587.196 105.327C588.745 99.6924 587.976 94.898 587.976 90.4285C587.976 87.5194 585.67 86.647 583.297 85.2141C580.166 83.3232 577.4 84.8854 573.941 83.7242C569.048 82.0821 568.734 77.0668 563.804 75.5302C559.751 74.2669 556.851 74.0299 552.888 75.5302C550.057 76.6018 548.083 77.2563 545.87 79.2547C543.83 81.0971 543.072 82.7466 541.971 85.2141C540.539 88.4256 541.971 94.153 541.971 94.153Z" fill="black"/>
<path d="M543.53 112.776C541.033 108.115 543.53 99.3675 543.53 99.3675L554.446 90.4285H556.785C556.785 90.4285 556.495 93.6254 556.785 95.6429C557.087 97.741 558.345 100.857 558.345 100.857L563.023 113.521L570.041 118.735V127.674C570.041 131.165 556.786 141.828 556.786 141.828L553.667 141.083C553.667 141.083 552.283 134.765 552.107 130.654C551.92 126.284 552.887 119.48 552.887 119.48C550.966 119.345 549.86 118.937 548.208 117.99C545.801 116.61 544.809 115.163 543.53 112.776Z" fill="#F4BD9F"/>
</svg>
