<svg width="325" height="257" viewBox="0 0 325 257" fill="none" xmlns="http://www.w3.org/2000/svg">
<mask id="mask0_326_4972" style="mask-type:alpha" maskUnits="userSpaceOnUse" x="0" y="0" width="325" height="257">
<path d="M0 128.5C0 57.5314 57.5314 0 128.5 0H162.283C251.909 0 324.565 72.6564 324.565 162.283V257H128.5C57.5314 257 0 199.469 0 128.5Z" fill="#F6EDE5"/>
</mask>
<g mask="url(#mask0_326_4972)">
<path d="M0 125.974C0 55.0057 57.5314 -2.52576 128.5 -2.52576H162.283C251.909 -2.52576 324.565 70.1306 324.565 159.757V254.474H128.5C57.5314 254.474 0 196.943 0 125.974Z" fill="#F6EDE5"/>
<rect x="105.452" y="133.867" width="160.388" height="119.975" fill="#BFE3F8"/>
<path d="M170.492 214.377C170.492 205.833 177.418 198.907 185.962 198.907C194.506 198.907 201.433 205.833 201.433 214.377V253.843H170.492V214.377Z" fill="#F6EDE5"/>
<rect x="105.452" y="149.022" width="160.388" height="15.7862" fill="#7D131B"/>
<rect x="105.452" y="169.86" width="160.388" height="5.68305" fill="#7D131B"/>
<rect x="142.077" y="133.867" width="25.258" height="9.47174" rx="4.73587" fill="#F6EDE5"/>
<rect x="142.076" y="244.371" width="25.258" height="9.47174" rx="4.73587" fill="#F6EDE5"/>
<rect x="147.76" y="143.339" width="14.5233" height="101.032" fill="#F6EDE5"/>
<rect x="110.504" y="133.867" width="25.258" height="9.47174" rx="4.73587" fill="#F6EDE5"/>
<rect x="110.504" y="244.371" width="25.258" height="9.47174" rx="4.73587" fill="#F6EDE5"/>
<rect x="115.555" y="143.339" width="14.5233" height="101.032" fill="#F6EDE5"/>
<rect x="236.163" y="133.867" width="25.258" height="9.47174" rx="4.73587" fill="#F6EDE5"/>
<rect x="236.163" y="244.371" width="25.258" height="9.47174" rx="4.73587" fill="#F6EDE5"/>
<rect x="241.846" y="143.339" width="14.5233" height="101.032" fill="#F6EDE5"/>
<rect x="204.59" y="133.867" width="25.258" height="9.47174" rx="4.73587" fill="#F6EDE5"/>
<rect x="204.59" y="244.371" width="25.258" height="9.47174" rx="4.73587" fill="#F6EDE5"/>
<rect x="209.642" y="143.339" width="14.5233" height="101.032" fill="#F6EDE5"/>
<rect x="46.7275" y="164.808" width="58.7248" height="89.0344" fill="#779AAB"/>
<rect x="81.4575" y="189.435" width="15.7862" height="31.5725" fill="#F6EDE5"/>
<rect x="57.4624" y="189.435" width="15.7862" height="31.5725" fill="#F6EDE5"/>
<rect x="265.84" y="164.808" width="58.7248" height="89.0344" fill="#779AAB"/>
<rect x="298.044" y="189.435" width="15.7862" height="31.5725" fill="#F6EDE5"/>
<rect x="274.049" y="189.435" width="15.7862" height="31.5725" fill="#F6EDE5"/>
<path d="M185.647 67.5651L280.252 134.341H91.0413L185.647 67.5651Z" fill="#779AAB"/>
<path d="M185.962 78.9312L256.232 128.658H115.692L185.962 78.9312Z" fill="#BFE3F8"/>
<circle cx="185.962" cy="107.662" r="13.7875" fill="#BFE3F8" stroke="#203049" stroke-width="8"/>
</g>
<circle cx="90.6132" cy="49.5688" r="16.102" fill="white"/>
<circle cx="107.031" cy="53.9889" r="16.102" fill="white"/>
<circle cx="130.395" cy="49.5688" r="16.102" fill="white"/>
<circle cx="77.9843" cy="65.355" r="16.102" fill="white"/>
<circle cx="98.1906" cy="70.4067" r="16.102" fill="white"/>
<circle cx="123.449" cy="65.355" r="16.102" fill="white"/>
<circle cx="146.812" cy="54.6204" r="16.102" fill="white"/>
<circle cx="65.9867" cy="49.5688" r="16.102" fill="white"/>
<circle cx="252.264" cy="38.8341" r="16.102" fill="white"/>
<circle cx="268.682" cy="43.2543" r="16.102" fill="white"/>
<circle cx="292.045" cy="38.8341" r="16.102" fill="white"/>
<circle cx="239.635" cy="54.6204" r="16.102" fill="white"/>
<circle cx="259.842" cy="59.672" r="16.102" fill="white"/>
<circle cx="285.1" cy="54.6204" r="16.102" fill="white"/>
<circle cx="308.463" cy="43.8858" r="16.102" fill="white"/>
<circle cx="227.638" cy="38.8341" r="16.102" fill="white"/>
</svg>
