<svg width="272" height="265" viewBox="0 0 272 265" fill="none" xmlns="http://www.w3.org/2000/svg">
<path d="M258.683 127.312C258.698 144.932 254.962 162.361 247.714 178.482C240.466 194.603 229.865 209.06 216.592 220.927C212.899 224.231 209.018 227.326 204.965 230.195C199.765 233.877 194.29 237.171 188.587 240.049H188.527C187.312 240.675 186.077 241.271 184.831 241.848C184.263 242.122 183.706 242.376 183.128 242.63C179.521 244.253 175.822 245.709 172.03 247C169.041 247.977 165.972 248.955 162.874 249.757C145.002 254.422 126.32 255.285 108.081 252.289C105.919 251.937 103.787 251.536 101.665 251.076L99.8716 250.676C94.4584 249.435 89.1338 247.847 83.9317 245.924C80.9097 244.81 77.9476 243.588 75.0452 242.258C73.9194 241.74 72.7936 241.212 71.6878 240.665C70.9307 240.293 70.1835 239.912 69.4363 239.531C49.1656 229.085 32.0884 213.539 19.9534 194.487C7.81839 175.435 1.06164 153.56 0.375009 131.102C-0.311618 108.645 5.09657 86.4114 16.0458 66.6794C26.9949 46.9473 43.0917 30.4254 62.6877 18.8053C82.2838 7.1853 104.675 0.884757 127.568 0.548841C150.462 0.212925 173.035 5.85373 192.976 16.8936C212.918 27.9335 229.511 43.9758 241.056 63.3778C252.602 82.7798 258.685 104.844 258.683 127.312Z" fill="url(#paint0_linear_405_146)"/>
<path d="M163.353 136.481C171.582 144.791 195.551 177.13 195.551 177.13L180.827 198.315L167.587 156.229L163.353 136.481Z" fill="url(#paint1_linear_405_146)"/>
<path d="M188.527 240.117C187.312 240.743 186.076 241.339 184.831 241.916C184.263 242.19 183.705 242.444 183.128 242.698C179.521 244.321 175.822 245.778 172.029 247.068C169.041 248.046 165.972 249.023 162.874 249.825C145.002 254.49 126.32 255.353 108.081 252.357C105.919 252.005 103.787 251.604 101.665 251.145C93.894 256.404 86.7211 260.852 81.969 262.876L82.3575 259.621L83.9714 246.002L87.7074 214.318L102.512 200.27L69.2271 202.802C69.2271 202.802 72.7239 155.193 86.3724 145.397C100.021 135.602 114.337 126.823 114.337 126.823C116.045 127.928 117.926 128.75 119.906 129.257C124.64 130.541 129.56 131.034 134.461 130.714C140.299 130.45 146.137 125.122 146.416 124.848C146.416 124.848 155.581 126.637 163.352 136.521C167.228 141.608 170.01 147.415 171.531 153.59C173.444 160.814 176.841 177.688 180.707 198.071C183.237 211.19 185.897 225.737 188.527 240.117Z" fill="url(#paint2_linear_405_146)"/>
<path d="M195.551 177.169L209.757 193.505L259.719 144.84L261.612 134.878L271.574 126.383L267.141 139.336V156.209C267.141 156.209 228.606 217.505 217.986 220.663C205.563 224.368 180.846 198.295 180.846 198.295L195.551 177.169Z" fill="url(#paint3_linear_405_146)"/>
<path d="M143.687 199.508L155.273 226.88L170.246 220.565L159.268 193.779L143.687 199.508Z" fill="#7E57C2"/>
<path d="M159.825 217.192C157.962 218.698 155.183 218.346 151.736 218.522C147.105 218.641 142.663 220.35 139.183 223.351C134.551 227.174 121.6 237.174 108.648 246.305C106.297 247.957 103.946 249.59 101.675 251.193C93.904 256.453 86.731 260.901 81.9789 262.924C80.7296 263.533 79.3805 263.92 77.9939 264.068C71.339 264.234 69.9144 250.548 69.506 239.628C69.3764 236.001 69.3465 232.687 69.2768 230.292C68.9979 220.712 69.2768 202.919 69.2768 202.919L102.561 200.377L99.0346 222.999L98.417 226.998V227.027L108.379 223.41L108.688 223.302L144.055 210.408L146.496 206.272L148.05 210.183H148.199L163.342 208.228C163.342 208.228 163.601 214.152 159.825 217.192Z" fill="url(#paint4_linear_405_146)"/>
<path d="M152.185 74.5209C151.318 72.1942 150.571 70.6105 150.352 70.1413V70.0239C150.352 70.0239 149.584 71.8814 143.806 71.4317C138.028 70.982 136.115 68.1665 136.115 68.1665C136.115 68.1665 137.928 74.2667 131.044 76.877C124.419 79.3992 121.809 77.7666 121.63 77.6493C121.979 78.0208 127.159 83.4562 123.722 87.7674C120.165 92.2351 112.166 91.3552 112.166 91.3552V91.4139C113.172 93.6512 114.3 95.8343 115.543 97.954C116.2 99.0685 116.848 100.095 117.535 101.053V101.122C119.3 103.938 121.682 106.333 124.509 108.131C123.266 115.285 119.698 121.853 114.337 126.852C116.141 127.775 118.001 128.588 119.906 129.286C123.622 130.665 128.614 132.033 133.067 131.652C138.227 131.111 142.995 128.698 146.436 124.887L144.155 116.294L142.103 108.551C160.653 103.908 155.552 83.7104 152.185 74.5209ZM141.067 108.835L141.395 108.757L141.923 108.61C141.155 108.936 140.343 109.153 139.512 109.255C139.941 109.148 140.379 109.03 140.837 108.893L141.067 108.835Z" fill="url(#paint5_linear_405_146)"/>
<path d="M163.352 69.7699C155.701 76.6718 152.393 74.7263 152.184 74.5406V74.521C151.317 72.1943 150.57 70.6106 150.361 70.1414L150.311 70.0241C150.311 70.0241 149.534 71.8815 143.756 71.4318C137.978 70.9821 136.075 68.1666 136.075 68.1666C136.075 68.1666 137.888 74.2669 131.004 76.8771C124.369 79.3993 121.759 77.7667 121.589 77.6494C121.938 78.0111 127.119 83.4466 123.681 87.7578C120.125 92.2254 112.125 91.3553 112.125 91.3553V91.4043C113.132 93.6449 114.259 95.8312 115.502 97.9542C116.167 99.0621 116.831 100.095 117.495 101.053V101.122C117.495 101.122 114.765 106.391 109.893 106.283C105.022 106.176 104.912 101.395 104.912 101.395C104.912 101.395 101.465 107.496 90.8154 101.62C80.1656 95.7448 87.2688 87.2299 87.2688 87.2299C87.2688 87.2299 79.7173 81.5598 79.7173 73.0644C79.7173 64.569 91.4729 58.1071 91.4729 58.1071C91.4729 58.1071 87.2688 48.2431 94.362 42.8076C101.455 37.3721 112.115 41.0577 112.115 41.0577C112.115 41.0577 111.906 28.4368 122.765 28.6421C133.624 28.8474 136.085 35.368 136.085 35.368C136.085 35.368 145.848 27.9578 155.511 34.9379C165.175 41.918 161.2 54.0891 161.2 54.0891C161.2 54.0891 171.332 62.5845 163.352 69.7699Z" fill="url(#paint6_linear_405_146)"/>
<path opacity="0.15" d="M144.235 116.265C139.602 114.827 131.363 109.343 131.363 109.343C134.615 109.68 137.9 109.509 141.097 108.835L141.425 108.757L142.063 108.571H142.153L144.235 116.265Z" fill="black"/>
<path opacity="0.15" d="M107.005 171.03L102.512 200.358L98.9854 222.98L90.7764 229.676L108.639 223.312C108.639 223.312 104.006 210.329 107.005 171.03Z" fill="black"/>
<path opacity="0.15" d="M101.645 251.144C103.767 251.604 105.899 252.005 108.061 252.357C108.17 250.352 108.37 248.329 108.649 246.305L101.645 251.144Z" fill="black"/>
<defs>
<linearGradient id="paint0_linear_405_146" x1="130.03" y1="14.2999" x2="125.776" y2="264.147" gradientUnits="userSpaceOnUse">
<stop stop-color="white" stop-opacity="0"/>
<stop offset="1" stop-color="#64B5F6" stop-opacity="0.6"/>
</linearGradient>
<linearGradient id="paint1_linear_405_146" x1="153.599" y1="128.084" x2="188.209" y2="190.059" gradientUnits="userSpaceOnUse">
<stop stop-color="#E57373"/>
<stop offset="1" stop-color="#AD1457"/>
</linearGradient>
<linearGradient id="paint2_linear_405_146" x1="54541.7" y1="76223.7" x2="50913.5" y2="94471.8" gradientUnits="userSpaceOnUse">
<stop stop-color="#E57373"/>
<stop offset="1" stop-color="#AD1457"/>
</linearGradient>
<linearGradient id="paint3_linear_405_146" x1="285.093" y1="150.676" x2="189.492" y2="207.116" gradientUnits="userSpaceOnUse">
<stop stop-color="#FFF8E1"/>
<stop offset="1" stop-color="#FFCC80"/>
</linearGradient>
<linearGradient id="paint4_linear_405_146" x1="41940.8" y1="42693.3" x2="36793.8" y2="39156.7" gradientUnits="userSpaceOnUse">
<stop stop-color="#FFF8E1"/>
<stop offset="1" stop-color="#FFCC80"/>
</linearGradient>
<linearGradient id="paint5_linear_405_146" x1="161.938" y1="84.4763" x2="109.61" y2="106.437" gradientUnits="userSpaceOnUse">
<stop stop-color="#FFF8E1"/>
<stop offset="1" stop-color="#FFCC80"/>
</linearGradient>
<linearGradient id="paint6_linear_405_146" x1="149.863" y1="28.2706" x2="89.7698" y2="111.015" gradientUnits="userSpaceOnUse">
<stop stop-color="#FFB74D"/>
<stop offset="1" stop-color="#F4511E"/>
</linearGradient>
</defs>
</svg>
