<svg width="57" height="57" viewBox="0 0 57 57" fill="none" xmlns="http://www.w3.org/2000/svg">
<circle cx="28.5" cy="28.5" r="28.5" fill="#F6EDE5"/>
<path d="M28 16.5C31.3962 16.5 31.82 16.5125 33.1525 16.575C34.4837 16.6375 35.39 16.8463 36.1875 17.1563C37.0125 17.4738 37.7075 17.9037 38.4025 18.5975C39.0381 19.2224 39.5299 19.9782 39.8438 20.8125C40.1525 21.6087 40.3625 22.5162 40.425 23.8475C40.4838 25.18 40.5 25.6038 40.5 29C40.5 32.3962 40.4875 32.82 40.425 34.1525C40.3625 35.4837 40.1525 36.39 39.8438 37.1875C39.5308 38.0222 39.0389 38.7783 38.4025 39.4025C37.7775 40.0379 37.0216 40.5297 36.1875 40.8438C35.3912 41.1525 34.4837 41.3625 33.1525 41.425C31.82 41.4838 31.3962 41.5 28 41.5C24.6038 41.5 24.18 41.4875 22.8475 41.425C21.5162 41.3625 20.61 41.1525 19.8125 40.8438C18.9779 40.5306 18.2219 40.0387 17.5975 39.4025C16.9618 38.7777 16.4699 38.0218 16.1563 37.1875C15.8463 36.3912 15.6375 35.4837 15.575 34.1525C15.5162 32.82 15.5 32.3962 15.5 29C15.5 25.6038 15.5125 25.18 15.575 23.8475C15.6375 22.515 15.8463 21.61 16.1563 20.8125C16.469 19.9777 16.961 19.2217 17.5975 18.5975C18.2221 17.9615 18.978 17.4697 19.8125 17.1563C20.61 16.8463 21.515 16.6375 22.8475 16.575C24.18 16.5162 24.6038 16.5 28 16.5ZM28 22.75C26.3424 22.75 24.7527 23.4085 23.5806 24.5806C22.4085 25.7527 21.75 27.3424 21.75 29C21.75 30.6576 22.4085 32.2473 23.5806 33.4194C24.7527 34.5915 26.3424 35.25 28 35.25C29.6576 35.25 31.2473 34.5915 32.4194 33.4194C33.5915 32.2473 34.25 30.6576 34.25 29C34.25 27.3424 33.5915 25.7527 32.4194 24.5806C31.2473 23.4085 29.6576 22.75 28 22.75ZM36.125 22.4375C36.125 22.0231 35.9604 21.6257 35.6674 21.3326C35.3743 21.0396 34.9769 20.875 34.5625 20.875C34.1481 20.875 33.7507 21.0396 33.4576 21.3326C33.1646 21.6257 33 22.0231 33 22.4375C33 22.8519 33.1646 23.2493 33.4576 23.5424C33.7507 23.8354 34.1481 24 34.5625 24C34.9769 24 35.3743 23.8354 35.6674 23.5424C35.9604 23.2493 36.125 22.8519 36.125 22.4375ZM28 25.25C28.9946 25.25 29.9484 25.6451 30.6517 26.3483C31.3549 27.0516 31.75 28.0054 31.75 29C31.75 29.9946 31.3549 30.9484 30.6517 31.6517C29.9484 32.3549 28.9946 32.75 28 32.75C27.0054 32.75 26.0516 32.3549 25.3483 31.6517C24.6451 30.9484 24.25 29.9946 24.25 29C24.25 28.0054 24.6451 27.0516 25.3483 26.3483C26.0516 25.6451 27.0054 25.25 28 25.25Z" fill="#203049"/>
</svg>
