<svg width="57" height="57" viewBox="0 0 57 57" fill="none" xmlns="http://www.w3.org/2000/svg">
<circle cx="28.5" cy="28.5" r="28.5" fill="#BFE3F8"/>
<g clip-path="url(#clip0_326_4549)">
<path d="M21.7177 38.75H17.0012V23.5611H21.7177V38.75ZM19.3566 21.4893C17.8486 21.4893 16.625 20.2396 16.625 18.7316C16.625 18.0072 16.9128 17.3124 17.4251 16.8001C17.9374 16.2878 18.6322 16 19.3566 16C20.0811 16 20.7759 16.2878 21.2882 16.8001C21.8005 17.3124 22.0883 18.0072 22.0883 18.7316C22.0883 20.2396 20.8646 21.4893 19.3566 21.4893ZM39.3701 38.75H34.6641V31.3562C34.6641 29.5939 34.6284 27.3344 32.212 27.3344C29.7599 27.3344 29.3837 29.2486 29.3837 31.2295V38.75H24.672V23.5611H29.1952V25.633H29.261C29.8907 24.4394 31.4288 23.1801 33.7233 23.1801C38.4967 23.1801 39.3742 26.3236 39.3742 30.4064V38.75H39.3701Z" fill="#203049"/>
</g>
<defs>
<clipPath id="clip0_326_4549">
<rect width="26" height="26" fill="white" transform="translate(15 16)"/>
</clipPath>
</defs>
</svg>
