<svg width="57" height="57" viewBox="0 0 57 57" fill="none" xmlns="http://www.w3.org/2000/svg">
<circle cx="28.5" cy="28.5" r="28.5" fill="#BDCA9E"/>
<path d="M33.1521 23.8358C33.6234 23.8358 34.0825 23.8721 34.5296 23.9325C33.708 20.3438 29.938 17.625 25.4067 17.625C20.2713 17.625 16.1025 21.105 16.1025 25.3946C16.1025 27.8717 17.4921 30.0588 19.655 31.4846L18.4346 33.9375L21.7696 32.4996C22.4825 32.7533 23.2317 32.9587 24.0292 33.0675C23.9205 32.5963 23.86 32.1129 23.86 31.6054C23.848 27.3279 28.0167 23.8358 33.1521 23.8358ZM28.5 21.1171C28.6524 21.1171 28.8032 21.1471 28.944 21.2054C29.0847 21.2637 29.2126 21.3491 29.3203 21.4568C29.428 21.5646 29.5134 21.6924 29.5717 21.8332C29.63 21.9739 29.66 22.1248 29.66 22.2771C29.66 22.4294 29.63 22.5803 29.5717 22.721C29.5134 22.8617 29.428 22.9896 29.3203 23.0973C29.2126 23.205 29.0847 23.2905 28.944 23.3488C28.8032 23.4071 28.6524 23.4371 28.5 23.4371C28.1924 23.4371 27.8973 23.3149 27.6798 23.0973C27.4623 22.8798 27.34 22.5847 27.34 22.2771C27.34 21.9694 27.4623 21.6744 27.6798 21.4568C27.8973 21.2393 28.1924 21.1171 28.5 21.1171ZM22.3013 23.4492C21.9936 23.4492 21.6986 23.327 21.481 23.1094C21.2635 22.8919 21.1413 22.5968 21.1413 22.2892C21.1413 21.9815 21.2635 21.6865 21.481 21.4689C21.6986 21.2514 21.9936 21.1292 22.3013 21.1292C22.6089 21.1292 22.904 21.2514 23.1215 21.4689C23.3391 21.6865 23.4613 21.9815 23.4613 22.2892C23.4613 22.5968 23.3391 22.8919 23.1215 23.1094C22.904 23.327 22.6089 23.4492 22.3013 23.4492Z" fill="white"/>
<path d="M40.8976 31.6054C40.8976 28.1737 37.4297 25.3945 33.1522 25.3945C28.8747 25.3945 25.4067 28.1737 25.4067 31.6054C25.4067 35.037 28.8747 37.8162 33.1522 37.8162C33.853 37.8162 34.5297 37.7195 35.1701 37.5745L39.3509 39.3749L37.9009 36.4749C39.7134 35.3391 40.8976 33.5991 40.8976 31.6054ZM30.8201 31.2187C30.5906 31.2187 30.3664 31.1507 30.1756 31.0232C29.9848 30.8957 29.8362 30.7146 29.7484 30.5026C29.6606 30.2906 29.6376 30.0574 29.6824 29.8324C29.7271 29.6074 29.8376 29.4007 29.9998 29.2385C30.1621 29.0762 30.3687 28.9657 30.5938 28.921C30.8188 28.8762 31.052 28.8992 31.264 28.987C31.4759 29.0748 31.6571 29.2235 31.7846 29.4142C31.912 29.605 31.9801 29.8293 31.9801 30.0587C31.9922 30.6991 31.4605 31.2187 30.8201 31.2187ZM35.4722 31.2187C35.1645 31.2187 34.8695 31.0965 34.6519 30.8789C34.4344 30.6614 34.3122 30.3663 34.3122 30.0587C34.3122 29.751 34.4344 29.456 34.6519 29.2385C34.8695 29.0209 35.1645 28.8987 35.4722 28.8987C35.7798 28.8987 36.0749 29.0209 36.2924 29.2385C36.5099 29.456 36.6322 29.751 36.6322 30.0587C36.6322 30.3663 36.5099 30.6614 36.2924 30.8789C36.0749 31.0965 35.7798 31.2187 35.4722 31.2187Z" fill="white"/>
</svg>
