<svg width="57" height="57" viewBox="0 0 57 57" fill="none" xmlns="http://www.w3.org/2000/svg">
<circle cx="28.5" cy="28.5" r="28.5" fill="#F44B57"/>
<path d="M39.1917 23.4037C39.0588 22.9106 38.7991 22.461 38.4385 22.0995C38.0778 21.7381 37.6288 21.4773 37.1361 21.3433C35.3091 20.8417 27.9999 20.8335 27.9999 20.8335C27.9999 20.8335 20.6919 20.8253 18.8637 21.3048C18.3713 21.445 17.9232 21.7094 17.5624 22.0727C17.2016 22.4359 16.9402 22.8858 16.8034 23.3792C16.3216 25.2062 16.3169 28.9955 16.3169 28.9955C16.3169 28.9955 16.3122 32.8035 16.7906 34.6118C17.0589 35.6117 17.8464 36.4015 18.8474 36.671C20.6931 37.1727 27.9824 37.1808 27.9824 37.1808C27.9824 37.1808 35.2916 37.189 37.1186 36.7107C37.6115 36.5769 38.0609 36.3168 38.4225 35.9561C38.784 35.5953 39.0452 35.1464 39.1801 34.6538C39.6631 32.828 39.6666 29.0398 39.6666 29.0398C39.6666 29.0398 39.6899 25.2307 39.1917 23.4037ZM25.6619 32.506L25.6677 25.506L31.7426 29.0118L25.6619 32.506Z" fill="white"/>
</svg>
